<svg width="32" height="32" viewBox="0 0 32 32" fill="none" xmlns="http://www.w3.org/2000/svg">
  <!-- Background circle with gradient -->
  <circle cx="16" cy="16" r="16" fill="url(#gradient)"/>

  <!-- Tool silhouette -->
  <path d="M12 8l-1 3 3 1-3 1 1 3 3-1-1-3-3-1z" fill="white"/>
  <path d="M20 12l-1 3 3 1-3 1 1 3 3-1-1-3-3-1z" fill="white"/>
  <path d="M8 16l-1 3 3 1-3 1 1 3 3-1-1-3-3-1z" fill="white"/>
  <path d="M16 20l-1 3 3 1-3 1 1 3 3-1-1-3-3-1z" fill="white"/>

  <!-- Connecting lines representing image processing -->
  <path d="M14 11l2 2M18 15l2 2M10 19l2 2" stroke="white" stroke-width="1.5" stroke-linecap="round"/>

  <!-- Center sparkle/star effect -->
  <circle cx="16" cy="16" r="2" fill="white"/>
  <path d="M16 8l0.5 1.5h1.5l-1.25 1L17.5 12l-1.25-1L14 10.5l1-1.25L15.5 8z" fill="white"/>

  <!-- Gradient definition -->
  <defs>
    <linearGradient id="gradient" x1="0%" y1="0%" x2="100%" y2="100%">
      <stop offset="0%" style="stop-color:#3B82F6;stop-opacity:1" />
      <stop offset="50%" style="stop-color:#8B5CF6;stop-opacity:1" />
      <stop offset="100%" style="stop-color:#06B6D4;stop-opacity:1" />
    </linearGradient>
  </defs>
</svg>
