<svg width="120" height="120" viewBox="0 0 120 120" fill="none" xmlns="http://www.w3.org/2000/svg">
  <!-- Purple dot icon (centered, larger) -->
  <g transform="translate(60, 45)">
    <!-- Outer ring -->
    <circle cx="-10" cy="-10" r="2" fill="#9333EA"/>
    <circle cx="0" cy="-10" r="2" fill="#9333EA"/>
    <circle cx="10" cy="-10" r="2" fill="#9333EA"/>
    <circle cx="-10" cy="0" r="2" fill="#9333EA"/>
    <circle cx="10" cy="0" r="2" fill="#9333EA"/>
    <circle cx="-10" cy="10" r="2" fill="#9333EA"/>
    <circle cx="0" cy="10" r="2" fill="#9333EA"/>
    <circle cx="10" cy="10" r="2" fill="#9333EA"/>
    
    <!-- Middle ring -->
    <circle cx="-6" cy="-6" r="2.5" fill="#9333EA"/>
    <circle cx="6" cy="-6" r="2.5" fill="#9333EA"/>
    <circle cx="-6" cy="6" r="2.5" fill="#9333EA"/>
    <circle cx="6" cy="6" r="2.5" fill="#9333EA"/>
    
    <!-- Central 2x2 -->
    <circle cx="-3" cy="-3" r="3" fill="#9333EA"/>
    <circle cx="3" cy="-3" r="3" fill="#9333EA"/>
    <circle cx="-3" cy="3" r="3" fill="#9333EA"/>
    <circle cx="3" cy="3" r="3" fill="#9333EA"/>
  </g>
  
  <!-- FREETOOLBOX text (below icon) -->
  <text x="60" y="95" font-family="'Arial Black', 'Helvetica Neue', Arial, sans-serif" font-size="10" font-weight="900" fill="#9333EA" text-anchor="middle" letter-spacing="0.5">
    <tspan>FR</tspan>
    <tspan>E</tspan>
    <tspan>T</tspan>
    <tspan>O</tspan>
    <tspan>OLB</tspan>
    <tspan>O</tspan>
    <tspan>X</tspan>
  </text>
  
  <!-- Stencil cut-outs -->
  <line x1="52" y1="88" x2="56" y2="88" stroke="#9333EA" stroke-width="1" stroke-linecap="round"/>
  <line x1="52" y1="91" x2="56" y2="91" stroke="#9333EA" stroke-width="1" stroke-linecap="round"/>
  <line x1="52" y1="94" x2="56" y2="94" stroke="#9333EA" stroke-width="1" stroke-linecap="round"/>
  <rect x="60" y="87" width="8" height="1" fill="#9333EA"/>
  <rect x="60" y="92" width="8" height="1" fill="#9333EA"/>
  <rect x="80" y="87" width="8" height="1" fill="#9333EA"/>
  <rect x="80" y="92" width="8" height="1" fill="#9333EA"/>
</svg>
