<svg width="180" height="45" viewBox="0 0 180 45" fill="none" xmlns="http://www.w3.org/2000/svg">
  <!-- Purple dot icon -->
  <g transform="translate(18, 22.5)">
    <!-- Outer ring -->
    <circle cx="-6" cy="-6" r="1" fill="#9333EA"/>
    <circle cx="0" cy="-6" r="1" fill="#9333EA"/>
    <circle cx="6" cy="-6" r="1" fill="#9333EA"/>
    <circle cx="-6" cy="0" r="1" fill="#9333EA"/>
    <circle cx="6" cy="0" r="1" fill="#9333EA"/>
    <circle cx="-6" cy="6" r="1" fill="#9333EA"/>
    <circle cx="0" cy="6" r="1" fill="#9333EA"/>
    <circle cx="6" cy="6" r="1" fill="#9333EA"/>
    
    <!-- Middle ring -->
    <circle cx="-3.5" cy="-3.5" r="1.5" fill="#9333EA"/>
    <circle cx="3.5" cy="-3.5" r="1.5" fill="#9333EA"/>
    <circle cx="-3.5" cy="3.5" r="1.5" fill="#9333EA"/>
    <circle cx="3.5" cy="3.5" r="1.5" fill="#9333EA"/>
    
    <!-- Central 2x2 -->
    <circle cx="-2" cy="-2" r="2" fill="#9333EA"/>
    <circle cx="2" cy="-2" r="2" fill="#9333EA"/>
    <circle cx="-2" cy="2" r="2" fill="#9333EA"/>
    <circle cx="2" cy="2" r="2" fill="#9333EA"/>
  </g>
  
  <!-- FREETOOLBOX text with stencil style -->
  <text x="45" y="26" font-family="'Arial Black', 'Helvetica Neue', Arial, sans-serif" font-size="16" font-weight="900" letter-spacing="0.8" fill="#9333EA">
    <tspan>FR</tspan>
    <tspan x="21">E</tspan>
    <tspan x="28">T</tspan>
    <tspan x="36">O</tspan>
    <tspan x="45">OLB</tspan>
    <tspan x="67">O</tspan>
    <tspan x="76">X</tspan>
  </text>
  
  <!-- Stencil cut-outs for E -->
  <line x1="21" y1="15" x2="26" y2="15" stroke="#9333EA" stroke-width="2" stroke-linecap="round"/>
  <line x1="21" y1="20" x2="26" y2="20" stroke="#9333EA" stroke-width="2" stroke-linecap="round"/>
  <line x1="21" y1="25" x2="26" y2="25" stroke="#9333EA" stroke-width="2" stroke-linecap="round"/>
  
  <!-- Stencil cut-outs for O's -->
  <rect x="36" y="13" width="9" height="1.5" fill="#9333EA"/>
  <rect x="36" y="21" width="9" height="1.5" fill="#9333EA"/>
  <rect x="67" y="13" width="9" height="1.5" fill="#9333EA"/>
  <rect x="67" y="21" width="9" height="1.5" fill="#9333EA"/>
  
  <!-- Stencil cut-out for B -->
  <rect x="58" y="16.5" width="6" height="1.5" fill="#9333EA"/>
</svg>
